# Blender v2.93.5 OBJ File: ''
# www.blender.org
mtllib ammo_box2.mtl
o ammo_box
v 0.275000 1.022391 1.005738
v -0.386353 0.504847 1.338999
v 0.415861 -1.535678 -0.237879
v 1.077214 -1.018134 -0.571141
v -0.720413 1.538368 -0.168353
v -1.381767 1.020824 0.164909
v 0.081801 -0.502157 -1.745232
v -0.579553 -1.019701 -1.411970
vt 0.481204 0.545385
vt 0.209877 0.454615
vt 0.481204 0.454615
vt 0.642842 0.545385
vt 0.479743 0.454615
vt 0.642842 0.454615
vt 0.914170 0.545385
vt 0.914170 0.454615
vt 0.208416 0.545385
vt 0.045317 0.454615
vt 0.208416 0.454615
vt 0.479743 0.708484
vt 0.479743 0.545385
vt 0.208416 0.291516
vt 0.479743 0.291516
vt 0.209877 0.545385
vt 0.045317 0.545385
vt 0.208416 0.708484
vn 0.6131 -0.3178 0.7232
vn -0.2970 0.7556 0.5839
vn -0.6131 0.3178 -0.7232
vn 0.2970 -0.7556 -0.5839
vn -0.7320 -0.5728 0.3689
vn 0.7320 0.5728 -0.3689
usemtl Mat
s off
f 2/1/1 4/2/1 1/3/1
f 6/4/2 1/5/2 5/6/2
f 8/7/3 5/6/3 7/8/3
f 3/9/4 7/10/4 4/11/4
f 6/12/5 3/9/5 2/13/5
f 1/5/6 7/14/6 5/15/6
f 2/1/1 3/16/1 4/2/1
f 6/4/2 2/13/2 1/5/2
f 8/7/3 6/4/3 5/6/3
f 3/9/4 8/17/4 7/10/4
f 6/12/5 8/18/5 3/9/5
f 1/5/6 4/11/6 7/14/6
